<mxfile host="app.diagrams.net" agent="Mozilla/5.0 (Windows NT 10.0; Win64; x64; rv:141.0) Gecko/20100101 Firefox/141.0" version="28.0.9">
  <diagram name="第 1 页" id="K6bxP3eLT8ISsSR_P171">
    <mxGraphModel dx="951" dy="506" grid="1" gridSize="10" guides="1" tooltips="1" connect="1" arrows="1" fold="1" page="1" pageScale="1" pageWidth="827" pageHeight="1169" math="0" shadow="0">
      <root>
        <mxCell id="0" />
        <mxCell id="1" parent="0" />
        <mxCell id="LN3oMMvDZQhAUmZCS1oj-1" value="&lt;div&gt;Lin0&lt;/div&gt;" style="rounded=0;whiteSpace=wrap;html=1;" parent="1" vertex="1">
          <mxGeometry x="80" y="40" width="60" height="100" as="geometry" />
        </mxCell>
        <mxCell id="LN3oMMvDZQhAUmZCS1oj-3" value="TX Pad" style="rounded=0;whiteSpace=wrap;html=1;" parent="1" vertex="1">
          <mxGeometry x="200" y="50" width="50" height="20" as="geometry" />
        </mxCell>
        <mxCell id="LN3oMMvDZQhAUmZCS1oj-4" value="RX Pad" style="rounded=0;whiteSpace=wrap;html=1;" parent="1" vertex="1">
          <mxGeometry x="200" y="110" width="50" height="20" as="geometry" />
        </mxCell>
        <mxCell id="LN3oMMvDZQhAUmZCS1oj-5" value="" style="endArrow=classic;html=1;rounded=0;exitX=1;exitY=0.193;exitDx=0;exitDy=0;exitPerimeter=0;entryX=0;entryY=0.5;entryDx=0;entryDy=0;" parent="1" source="LN3oMMvDZQhAUmZCS1oj-1" target="LN3oMMvDZQhAUmZCS1oj-3" edge="1">
          <mxGeometry width="50" height="50" relative="1" as="geometry">
            <mxPoint x="130" y="120" as="sourcePoint" />
            <mxPoint x="180" y="70" as="targetPoint" />
          </mxGeometry>
        </mxCell>
        <mxCell id="LN3oMMvDZQhAUmZCS1oj-6" style="edgeStyle=orthogonalEdgeStyle;rounded=0;orthogonalLoop=1;jettySize=auto;html=1;entryX=1.011;entryY=0.801;entryDx=0;entryDy=0;entryPerimeter=0;" parent="1" source="LN3oMMvDZQhAUmZCS1oj-4" target="LN3oMMvDZQhAUmZCS1oj-1" edge="1">
          <mxGeometry relative="1" as="geometry" />
        </mxCell>
        <mxCell id="LN3oMMvDZQhAUmZCS1oj-7" value="&lt;div&gt;Lin Transceiver&lt;/div&gt;" style="rounded=0;whiteSpace=wrap;html=1;" parent="1" vertex="1">
          <mxGeometry x="290" y="40" width="70" height="100" as="geometry" />
        </mxCell>
        <mxCell id="LN3oMMvDZQhAUmZCS1oj-8" style="edgeStyle=orthogonalEdgeStyle;rounded=0;orthogonalLoop=1;jettySize=auto;html=1;entryX=-0.042;entryY=0.204;entryDx=0;entryDy=0;entryPerimeter=0;" parent="1" source="LN3oMMvDZQhAUmZCS1oj-3" target="LN3oMMvDZQhAUmZCS1oj-7" edge="1">
          <mxGeometry relative="1" as="geometry" />
        </mxCell>
        <mxCell id="LN3oMMvDZQhAUmZCS1oj-9" value="" style="endArrow=classic;html=1;rounded=0;exitX=-0.014;exitY=0.798;exitDx=0;exitDy=0;exitPerimeter=0;" parent="1" source="LN3oMMvDZQhAUmZCS1oj-7" edge="1">
          <mxGeometry width="50" height="50" relative="1" as="geometry">
            <mxPoint x="280.1" y="191.79999999999995" as="sourcePoint" />
            <mxPoint x="250" y="120" as="targetPoint" />
          </mxGeometry>
        </mxCell>
        <mxCell id="LN3oMMvDZQhAUmZCS1oj-10" value="" style="endArrow=classic;startArrow=classic;html=1;rounded=0;exitX=1;exitY=0.5;exitDx=0;exitDy=0;" parent="1" source="LN3oMMvDZQhAUmZCS1oj-7" edge="1">
          <mxGeometry width="50" height="50" relative="1" as="geometry">
            <mxPoint x="380" y="100" as="sourcePoint" />
            <mxPoint x="400" y="90" as="targetPoint" />
          </mxGeometry>
        </mxCell>
        <mxCell id="LN3oMMvDZQhAUmZCS1oj-11" value="" style="endArrow=classic;startArrow=classic;html=1;rounded=0;" parent="1" edge="1">
          <mxGeometry width="50" height="50" relative="1" as="geometry">
            <mxPoint x="400" y="450" as="sourcePoint" />
            <mxPoint x="400" y="20" as="targetPoint" />
          </mxGeometry>
        </mxCell>
        <mxCell id="LN3oMMvDZQhAUmZCS1oj-12" value="&lt;div&gt;LIN Bus&lt;/div&gt;" style="edgeLabel;html=1;align=center;verticalAlign=middle;resizable=0;points=[];" parent="LN3oMMvDZQhAUmZCS1oj-11" vertex="1" connectable="0">
          <mxGeometry x="0.7494" y="-2" relative="1" as="geometry">
            <mxPoint as="offset" />
          </mxGeometry>
        </mxCell>
        <mxCell id="LN3oMMvDZQhAUmZCS1oj-13" value="&lt;div&gt;Lin1&lt;/div&gt;" style="rounded=0;whiteSpace=wrap;html=1;" parent="1" vertex="1">
          <mxGeometry x="80" y="170" width="60" height="100" as="geometry" />
        </mxCell>
        <mxCell id="LN3oMMvDZQhAUmZCS1oj-14" value="TX Pad" style="rounded=0;whiteSpace=wrap;html=1;" parent="1" vertex="1">
          <mxGeometry x="200" y="180" width="50" height="20" as="geometry" />
        </mxCell>
        <mxCell id="LN3oMMvDZQhAUmZCS1oj-15" value="RX Pad" style="rounded=0;whiteSpace=wrap;html=1;" parent="1" vertex="1">
          <mxGeometry x="200" y="240" width="50" height="20" as="geometry" />
        </mxCell>
        <mxCell id="LN3oMMvDZQhAUmZCS1oj-16" value="" style="endArrow=classic;html=1;rounded=0;exitX=1;exitY=0.193;exitDx=0;exitDy=0;exitPerimeter=0;entryX=0;entryY=0.5;entryDx=0;entryDy=0;" parent="1" source="LN3oMMvDZQhAUmZCS1oj-13" target="LN3oMMvDZQhAUmZCS1oj-14" edge="1">
          <mxGeometry width="50" height="50" relative="1" as="geometry">
            <mxPoint x="130" y="250" as="sourcePoint" />
            <mxPoint x="180" y="200" as="targetPoint" />
          </mxGeometry>
        </mxCell>
        <mxCell id="LN3oMMvDZQhAUmZCS1oj-17" style="edgeStyle=orthogonalEdgeStyle;rounded=0;orthogonalLoop=1;jettySize=auto;html=1;entryX=1.011;entryY=0.801;entryDx=0;entryDy=0;entryPerimeter=0;" parent="1" source="LN3oMMvDZQhAUmZCS1oj-15" target="LN3oMMvDZQhAUmZCS1oj-13" edge="1">
          <mxGeometry relative="1" as="geometry" />
        </mxCell>
        <mxCell id="LN3oMMvDZQhAUmZCS1oj-18" value="&lt;div&gt;Lin Transceiver&lt;/div&gt;" style="rounded=0;whiteSpace=wrap;html=1;" parent="1" vertex="1">
          <mxGeometry x="290" y="170" width="70" height="100" as="geometry" />
        </mxCell>
        <mxCell id="LN3oMMvDZQhAUmZCS1oj-19" style="edgeStyle=orthogonalEdgeStyle;rounded=0;orthogonalLoop=1;jettySize=auto;html=1;entryX=-0.042;entryY=0.204;entryDx=0;entryDy=0;entryPerimeter=0;" parent="1" source="LN3oMMvDZQhAUmZCS1oj-14" target="LN3oMMvDZQhAUmZCS1oj-18" edge="1">
          <mxGeometry relative="1" as="geometry" />
        </mxCell>
        <mxCell id="LN3oMMvDZQhAUmZCS1oj-20" value="" style="endArrow=classic;html=1;rounded=0;exitX=-0.014;exitY=0.798;exitDx=0;exitDy=0;exitPerimeter=0;" parent="1" source="LN3oMMvDZQhAUmZCS1oj-18" edge="1">
          <mxGeometry width="50" height="50" relative="1" as="geometry">
            <mxPoint x="280.1" y="321.79999999999995" as="sourcePoint" />
            <mxPoint x="250" y="250" as="targetPoint" />
          </mxGeometry>
        </mxCell>
        <mxCell id="LN3oMMvDZQhAUmZCS1oj-21" value="" style="endArrow=classic;startArrow=classic;html=1;rounded=0;exitX=1;exitY=0.5;exitDx=0;exitDy=0;" parent="1" source="LN3oMMvDZQhAUmZCS1oj-18" edge="1">
          <mxGeometry width="50" height="50" relative="1" as="geometry">
            <mxPoint x="380" y="230" as="sourcePoint" />
            <mxPoint x="400" y="220" as="targetPoint" />
          </mxGeometry>
        </mxCell>
        <mxCell id="LN3oMMvDZQhAUmZCS1oj-22" value="&lt;div&gt;Lin2&lt;/div&gt;" style="rounded=0;whiteSpace=wrap;html=1;" parent="1" vertex="1">
          <mxGeometry x="80" y="300" width="60" height="100" as="geometry" />
        </mxCell>
        <mxCell id="LN3oMMvDZQhAUmZCS1oj-23" value="TX Pad" style="rounded=0;whiteSpace=wrap;html=1;" parent="1" vertex="1">
          <mxGeometry x="200" y="310" width="50" height="20" as="geometry" />
        </mxCell>
        <mxCell id="LN3oMMvDZQhAUmZCS1oj-24" value="RX Pad" style="rounded=0;whiteSpace=wrap;html=1;" parent="1" vertex="1">
          <mxGeometry x="200" y="370" width="50" height="20" as="geometry" />
        </mxCell>
        <mxCell id="LN3oMMvDZQhAUmZCS1oj-25" value="" style="endArrow=classic;html=1;rounded=0;exitX=1;exitY=0.193;exitDx=0;exitDy=0;exitPerimeter=0;entryX=0;entryY=0.5;entryDx=0;entryDy=0;" parent="1" source="LN3oMMvDZQhAUmZCS1oj-22" target="LN3oMMvDZQhAUmZCS1oj-23" edge="1">
          <mxGeometry width="50" height="50" relative="1" as="geometry">
            <mxPoint x="130" y="380" as="sourcePoint" />
            <mxPoint x="180" y="330" as="targetPoint" />
          </mxGeometry>
        </mxCell>
        <mxCell id="LN3oMMvDZQhAUmZCS1oj-26" style="edgeStyle=orthogonalEdgeStyle;rounded=0;orthogonalLoop=1;jettySize=auto;html=1;entryX=1.011;entryY=0.801;entryDx=0;entryDy=0;entryPerimeter=0;" parent="1" source="LN3oMMvDZQhAUmZCS1oj-24" target="LN3oMMvDZQhAUmZCS1oj-22" edge="1">
          <mxGeometry relative="1" as="geometry" />
        </mxCell>
        <mxCell id="LN3oMMvDZQhAUmZCS1oj-27" value="&lt;div&gt;Lin Transceiver&lt;/div&gt;" style="rounded=0;whiteSpace=wrap;html=1;" parent="1" vertex="1">
          <mxGeometry x="290" y="300" width="70" height="100" as="geometry" />
        </mxCell>
        <mxCell id="LN3oMMvDZQhAUmZCS1oj-28" style="edgeStyle=orthogonalEdgeStyle;rounded=0;orthogonalLoop=1;jettySize=auto;html=1;entryX=-0.042;entryY=0.204;entryDx=0;entryDy=0;entryPerimeter=0;" parent="1" source="LN3oMMvDZQhAUmZCS1oj-23" target="LN3oMMvDZQhAUmZCS1oj-27" edge="1">
          <mxGeometry relative="1" as="geometry" />
        </mxCell>
        <mxCell id="LN3oMMvDZQhAUmZCS1oj-29" value="" style="endArrow=classic;html=1;rounded=0;exitX=-0.014;exitY=0.798;exitDx=0;exitDy=0;exitPerimeter=0;" parent="1" source="LN3oMMvDZQhAUmZCS1oj-27" edge="1">
          <mxGeometry width="50" height="50" relative="1" as="geometry">
            <mxPoint x="280.1" y="451.79999999999995" as="sourcePoint" />
            <mxPoint x="250" y="380" as="targetPoint" />
          </mxGeometry>
        </mxCell>
        <mxCell id="LN3oMMvDZQhAUmZCS1oj-30" value="" style="endArrow=classic;startArrow=classic;html=1;rounded=0;exitX=1;exitY=0.5;exitDx=0;exitDy=0;" parent="1" source="LN3oMMvDZQhAUmZCS1oj-27" edge="1">
          <mxGeometry width="50" height="50" relative="1" as="geometry">
            <mxPoint x="380" y="360" as="sourcePoint" />
            <mxPoint x="400" y="350" as="targetPoint" />
          </mxGeometry>
        </mxCell>
        <mxCell id="LN3oMMvDZQhAUmZCS1oj-33" style="edgeStyle=orthogonalEdgeStyle;rounded=0;orthogonalLoop=1;jettySize=auto;html=1;startArrow=classic;startFill=1;" parent="1" source="LN3oMMvDZQhAUmZCS1oj-31" edge="1">
          <mxGeometry relative="1" as="geometry">
            <mxPoint x="400" y="145" as="targetPoint" />
          </mxGeometry>
        </mxCell>
        <mxCell id="LN3oMMvDZQhAUmZCS1oj-31" value="&lt;div&gt;Lin Transceiver&lt;/div&gt;" style="rounded=0;whiteSpace=wrap;html=1;" parent="1" vertex="1">
          <mxGeometry x="440" y="120" width="90" height="50" as="geometry" />
        </mxCell>
        <mxCell id="LN3oMMvDZQhAUmZCS1oj-32" value="&lt;div&gt;Lin Transceiver&lt;/div&gt;" style="rounded=0;whiteSpace=wrap;html=1;" parent="1" vertex="1">
          <mxGeometry x="440" y="240" width="90" height="50" as="geometry" />
        </mxCell>
        <mxCell id="LN3oMMvDZQhAUmZCS1oj-34" style="edgeStyle=orthogonalEdgeStyle;rounded=0;orthogonalLoop=1;jettySize=auto;html=1;startArrow=classic;startFill=1;" parent="1" edge="1">
          <mxGeometry relative="1" as="geometry">
            <mxPoint x="400" y="264.71" as="targetPoint" />
            <mxPoint x="440" y="264.71" as="sourcePoint" />
          </mxGeometry>
        </mxCell>
        <mxCell id="LN3oMMvDZQhAUmZCS1oj-35" value="LIN网络连接结构" style="text;strokeColor=none;align=center;fillColor=none;html=1;verticalAlign=middle;whiteSpace=wrap;rounded=0;" parent="1" vertex="1">
          <mxGeometry x="200" y="450" width="140" height="30" as="geometry" />
        </mxCell>
        <mxCell id="LN3oMMvDZQhAUmZCS1oj-37" value="chip" style="whiteSpace=wrap;html=1;aspect=fixed;" parent="1" vertex="1">
          <mxGeometry x="120" y="520" width="80" height="80" as="geometry" />
        </mxCell>
        <mxCell id="LN3oMMvDZQhAUmZCS1oj-39" value="" style="whiteSpace=wrap;html=1;aspect=fixed;" parent="1" vertex="1">
          <mxGeometry x="110" y="530" width="10" height="10" as="geometry" />
        </mxCell>
        <mxCell id="LN3oMMvDZQhAUmZCS1oj-40" value="" style="whiteSpace=wrap;html=1;aspect=fixed;" parent="1" vertex="1">
          <mxGeometry x="110" y="530" width="10" height="10" as="geometry" />
        </mxCell>
        <mxCell id="LN3oMMvDZQhAUmZCS1oj-41" value="" style="whiteSpace=wrap;html=1;aspect=fixed;" parent="1" vertex="1">
          <mxGeometry x="110" y="530" width="10" height="10" as="geometry" />
        </mxCell>
        <mxCell id="LN3oMMvDZQhAUmZCS1oj-49" style="edgeStyle=orthogonalEdgeStyle;rounded=0;orthogonalLoop=1;jettySize=auto;html=1;endArrow=none;endFill=0;" parent="1" source="LN3oMMvDZQhAUmZCS1oj-42" edge="1">
          <mxGeometry relative="1" as="geometry">
            <mxPoint x="90" y="535" as="targetPoint" />
          </mxGeometry>
        </mxCell>
        <mxCell id="LN3oMMvDZQhAUmZCS1oj-42" value="" style="whiteSpace=wrap;html=1;aspect=fixed;" parent="1" vertex="1">
          <mxGeometry x="110" y="530" width="10" height="10" as="geometry" />
        </mxCell>
        <mxCell id="LN3oMMvDZQhAUmZCS1oj-50" style="edgeStyle=orthogonalEdgeStyle;rounded=0;orthogonalLoop=1;jettySize=auto;html=1;endArrow=none;endFill=0;" parent="1" source="LN3oMMvDZQhAUmZCS1oj-43" edge="1">
          <mxGeometry relative="1" as="geometry">
            <mxPoint x="90" y="555" as="targetPoint" />
          </mxGeometry>
        </mxCell>
        <mxCell id="LN3oMMvDZQhAUmZCS1oj-43" value="" style="whiteSpace=wrap;html=1;aspect=fixed;" parent="1" vertex="1">
          <mxGeometry x="110" y="550" width="10" height="10" as="geometry" />
        </mxCell>
        <mxCell id="LN3oMMvDZQhAUmZCS1oj-51" style="edgeStyle=orthogonalEdgeStyle;rounded=0;orthogonalLoop=1;jettySize=auto;html=1;endArrow=none;endFill=0;" parent="1" source="LN3oMMvDZQhAUmZCS1oj-44" edge="1">
          <mxGeometry relative="1" as="geometry">
            <mxPoint x="90" y="575" as="targetPoint" />
          </mxGeometry>
        </mxCell>
        <mxCell id="LN3oMMvDZQhAUmZCS1oj-44" value="" style="whiteSpace=wrap;html=1;aspect=fixed;" parent="1" vertex="1">
          <mxGeometry x="110" y="570" width="10" height="10" as="geometry" />
        </mxCell>
        <mxCell id="LN3oMMvDZQhAUmZCS1oj-52" style="edgeStyle=orthogonalEdgeStyle;rounded=0;orthogonalLoop=1;jettySize=auto;html=1;endArrow=none;endFill=0;" parent="1" source="LN3oMMvDZQhAUmZCS1oj-45" edge="1">
          <mxGeometry relative="1" as="geometry">
            <mxPoint x="230" y="535" as="targetPoint" />
          </mxGeometry>
        </mxCell>
        <mxCell id="LN3oMMvDZQhAUmZCS1oj-45" value="" style="whiteSpace=wrap;html=1;aspect=fixed;" parent="1" vertex="1">
          <mxGeometry x="200" y="530" width="10" height="10" as="geometry" />
        </mxCell>
        <mxCell id="LN3oMMvDZQhAUmZCS1oj-53" style="edgeStyle=orthogonalEdgeStyle;rounded=0;orthogonalLoop=1;jettySize=auto;html=1;endArrow=none;endFill=0;" parent="1" source="LN3oMMvDZQhAUmZCS1oj-46" edge="1">
          <mxGeometry relative="1" as="geometry">
            <mxPoint x="230" y="555" as="targetPoint" />
          </mxGeometry>
        </mxCell>
        <mxCell id="LN3oMMvDZQhAUmZCS1oj-46" value="" style="whiteSpace=wrap;html=1;aspect=fixed;" parent="1" vertex="1">
          <mxGeometry x="200" y="550" width="10" height="10" as="geometry" />
        </mxCell>
        <mxCell id="LN3oMMvDZQhAUmZCS1oj-54" style="edgeStyle=orthogonalEdgeStyle;rounded=0;orthogonalLoop=1;jettySize=auto;html=1;endArrow=none;endFill=0;" parent="1" source="LN3oMMvDZQhAUmZCS1oj-47" edge="1">
          <mxGeometry relative="1" as="geometry">
            <mxPoint x="230" y="575" as="targetPoint" />
          </mxGeometry>
        </mxCell>
        <mxCell id="LN3oMMvDZQhAUmZCS1oj-47" value="" style="whiteSpace=wrap;html=1;aspect=fixed;" parent="1" vertex="1">
          <mxGeometry x="200" y="570" width="10" height="10" as="geometry" />
        </mxCell>
        <mxCell id="LN3oMMvDZQhAUmZCS1oj-48" value="" style="endArrow=none;html=1;rounded=1;curved=0;" parent="1" edge="1">
          <mxGeometry width="50" height="50" relative="1" as="geometry">
            <mxPoint x="230" y="520" as="sourcePoint" />
            <mxPoint x="90" y="520" as="targetPoint" />
            <Array as="points">
              <mxPoint x="230" y="620" />
              <mxPoint x="90" y="620" />
            </Array>
          </mxGeometry>
        </mxCell>
        <mxCell id="LN3oMMvDZQhAUmZCS1oj-56" value="chip" style="whiteSpace=wrap;html=1;aspect=fixed;" parent="1" vertex="1">
          <mxGeometry x="320" y="520" width="80" height="80" as="geometry" />
        </mxCell>
        <mxCell id="LN3oMMvDZQhAUmZCS1oj-57" value="" style="whiteSpace=wrap;html=1;aspect=fixed;" parent="1" vertex="1">
          <mxGeometry x="310" y="530" width="10" height="10" as="geometry" />
        </mxCell>
        <mxCell id="LN3oMMvDZQhAUmZCS1oj-58" value="" style="whiteSpace=wrap;html=1;aspect=fixed;" parent="1" vertex="1">
          <mxGeometry x="310" y="530" width="10" height="10" as="geometry" />
        </mxCell>
        <mxCell id="LN3oMMvDZQhAUmZCS1oj-59" value="" style="whiteSpace=wrap;html=1;aspect=fixed;" parent="1" vertex="1">
          <mxGeometry x="310" y="530" width="10" height="10" as="geometry" />
        </mxCell>
        <mxCell id="LN3oMMvDZQhAUmZCS1oj-60" style="edgeStyle=orthogonalEdgeStyle;rounded=0;orthogonalLoop=1;jettySize=auto;html=1;endArrow=none;endFill=0;" parent="1" source="LN3oMMvDZQhAUmZCS1oj-61" edge="1">
          <mxGeometry relative="1" as="geometry">
            <mxPoint x="290" y="535" as="targetPoint" />
          </mxGeometry>
        </mxCell>
        <mxCell id="LN3oMMvDZQhAUmZCS1oj-61" value="" style="whiteSpace=wrap;html=1;aspect=fixed;" parent="1" vertex="1">
          <mxGeometry x="310" y="530" width="10" height="10" as="geometry" />
        </mxCell>
        <mxCell id="LN3oMMvDZQhAUmZCS1oj-62" style="edgeStyle=orthogonalEdgeStyle;rounded=0;orthogonalLoop=1;jettySize=auto;html=1;endArrow=none;endFill=0;" parent="1" source="LN3oMMvDZQhAUmZCS1oj-63" edge="1">
          <mxGeometry relative="1" as="geometry">
            <mxPoint x="290" y="555" as="targetPoint" />
          </mxGeometry>
        </mxCell>
        <mxCell id="LN3oMMvDZQhAUmZCS1oj-63" value="" style="whiteSpace=wrap;html=1;aspect=fixed;" parent="1" vertex="1">
          <mxGeometry x="310" y="550" width="10" height="10" as="geometry" />
        </mxCell>
        <mxCell id="LN3oMMvDZQhAUmZCS1oj-64" style="edgeStyle=orthogonalEdgeStyle;rounded=0;orthogonalLoop=1;jettySize=auto;html=1;endArrow=none;endFill=0;" parent="1" source="LN3oMMvDZQhAUmZCS1oj-65" edge="1">
          <mxGeometry relative="1" as="geometry">
            <mxPoint x="290" y="575" as="targetPoint" />
          </mxGeometry>
        </mxCell>
        <mxCell id="LN3oMMvDZQhAUmZCS1oj-65" value="" style="whiteSpace=wrap;html=1;aspect=fixed;" parent="1" vertex="1">
          <mxGeometry x="310" y="570" width="10" height="10" as="geometry" />
        </mxCell>
        <mxCell id="LN3oMMvDZQhAUmZCS1oj-66" style="edgeStyle=orthogonalEdgeStyle;rounded=0;orthogonalLoop=1;jettySize=auto;html=1;endArrow=none;endFill=0;" parent="1" source="LN3oMMvDZQhAUmZCS1oj-67" edge="1">
          <mxGeometry relative="1" as="geometry">
            <mxPoint x="430" y="535" as="targetPoint" />
          </mxGeometry>
        </mxCell>
        <mxCell id="LN3oMMvDZQhAUmZCS1oj-67" value="" style="whiteSpace=wrap;html=1;aspect=fixed;" parent="1" vertex="1">
          <mxGeometry x="400" y="530" width="10" height="10" as="geometry" />
        </mxCell>
        <mxCell id="LN3oMMvDZQhAUmZCS1oj-68" style="edgeStyle=orthogonalEdgeStyle;rounded=0;orthogonalLoop=1;jettySize=auto;html=1;endArrow=none;endFill=0;" parent="1" source="LN3oMMvDZQhAUmZCS1oj-69" edge="1">
          <mxGeometry relative="1" as="geometry">
            <mxPoint x="430" y="555" as="targetPoint" />
          </mxGeometry>
        </mxCell>
        <mxCell id="LN3oMMvDZQhAUmZCS1oj-69" value="" style="whiteSpace=wrap;html=1;aspect=fixed;" parent="1" vertex="1">
          <mxGeometry x="400" y="550" width="10" height="10" as="geometry" />
        </mxCell>
        <mxCell id="LN3oMMvDZQhAUmZCS1oj-70" style="edgeStyle=orthogonalEdgeStyle;rounded=0;orthogonalLoop=1;jettySize=auto;html=1;endArrow=none;endFill=0;" parent="1" source="LN3oMMvDZQhAUmZCS1oj-71" edge="1">
          <mxGeometry relative="1" as="geometry">
            <mxPoint x="430" y="575" as="targetPoint" />
          </mxGeometry>
        </mxCell>
        <mxCell id="LN3oMMvDZQhAUmZCS1oj-71" value="" style="whiteSpace=wrap;html=1;aspect=fixed;" parent="1" vertex="1">
          <mxGeometry x="400" y="570" width="10" height="10" as="geometry" />
        </mxCell>
        <mxCell id="LN3oMMvDZQhAUmZCS1oj-73" value="" style="endArrow=none;html=1;rounded=0;" parent="1" edge="1">
          <mxGeometry width="50" height="50" relative="1" as="geometry">
            <mxPoint x="290" y="620" as="sourcePoint" />
            <mxPoint x="290" y="520" as="targetPoint" />
          </mxGeometry>
        </mxCell>
        <mxCell id="LN3oMMvDZQhAUmZCS1oj-74" value="" style="endArrow=none;html=1;rounded=0;" parent="1" edge="1">
          <mxGeometry width="50" height="50" relative="1" as="geometry">
            <mxPoint x="430" y="620" as="sourcePoint" />
            <mxPoint x="430" y="520" as="targetPoint" />
          </mxGeometry>
        </mxCell>
        <mxCell id="LN3oMMvDZQhAUmZCS1oj-75" value="单网络" style="text;strokeColor=none;align=center;fillColor=none;html=1;verticalAlign=middle;whiteSpace=wrap;rounded=0;" parent="1" vertex="1">
          <mxGeometry x="130" y="630" width="60" height="30" as="geometry" />
        </mxCell>
        <mxCell id="LN3oMMvDZQhAUmZCS1oj-76" value="多网络" style="text;strokeColor=none;align=center;fillColor=none;html=1;verticalAlign=middle;whiteSpace=wrap;rounded=0;" parent="1" vertex="1">
          <mxGeometry x="330" y="630" width="60" height="30" as="geometry" />
        </mxCell>
        <mxCell id="LN3oMMvDZQhAUmZCS1oj-77" value="" style="endArrow=none;html=1;rounded=0;fillColor=#d5e8d4;strokeColor=#82b366;" parent="1" edge="1">
          <mxGeometry width="50" height="50" relative="1" as="geometry">
            <mxPoint x="77.5" y="720" as="sourcePoint" />
            <mxPoint x="117.5" y="720" as="targetPoint" />
          </mxGeometry>
        </mxCell>
        <mxCell id="LN3oMMvDZQhAUmZCS1oj-78" value="" style="endArrow=none;html=1;rounded=0;fillColor=#d5e8d4;strokeColor=#82b366;" parent="1" edge="1">
          <mxGeometry width="50" height="50" relative="1" as="geometry">
            <mxPoint x="117.5" y="720" as="sourcePoint" />
            <mxPoint x="117.5" y="700" as="targetPoint" />
          </mxGeometry>
        </mxCell>
        <mxCell id="LN3oMMvDZQhAUmZCS1oj-79" value="" style="endArrow=none;html=1;rounded=0;fillColor=#d5e8d4;strokeColor=#82b366;" parent="1" edge="1">
          <mxGeometry width="50" height="50" relative="1" as="geometry">
            <mxPoint x="117.5" y="700" as="sourcePoint" />
            <mxPoint x="137.5" y="700" as="targetPoint" />
          </mxGeometry>
        </mxCell>
        <mxCell id="LN3oMMvDZQhAUmZCS1oj-80" value="" style="endArrow=none;html=1;rounded=0;fillColor=#d5e8d4;strokeColor=#82b366;" parent="1" edge="1">
          <mxGeometry width="50" height="50" relative="1" as="geometry">
            <mxPoint x="137.5" y="720" as="sourcePoint" />
            <mxPoint x="157.5" y="720" as="targetPoint" />
          </mxGeometry>
        </mxCell>
        <mxCell id="LN3oMMvDZQhAUmZCS1oj-81" value="" style="endArrow=none;html=1;rounded=0;fillColor=#d5e8d4;strokeColor=#82b366;" parent="1" edge="1">
          <mxGeometry width="50" height="50" relative="1" as="geometry">
            <mxPoint x="167.5" y="720" as="sourcePoint" />
            <mxPoint x="187.5" y="720" as="targetPoint" />
          </mxGeometry>
        </mxCell>
        <mxCell id="LN3oMMvDZQhAUmZCS1oj-82" value="" style="endArrow=none;html=1;rounded=0;fillColor=#d5e8d4;strokeColor=#82b366;" parent="1" edge="1">
          <mxGeometry width="50" height="50" relative="1" as="geometry">
            <mxPoint x="157.5" y="700" as="sourcePoint" />
            <mxPoint x="167.5" y="700" as="targetPoint" />
          </mxGeometry>
        </mxCell>
        <mxCell id="LN3oMMvDZQhAUmZCS1oj-83" value="" style="endArrow=none;html=1;rounded=0;fillColor=#d5e8d4;strokeColor=#82b366;" parent="1" edge="1">
          <mxGeometry width="50" height="50" relative="1" as="geometry">
            <mxPoint x="137.37" y="720" as="sourcePoint" />
            <mxPoint x="137.37" y="700" as="targetPoint" />
          </mxGeometry>
        </mxCell>
        <mxCell id="LN3oMMvDZQhAUmZCS1oj-84" value="" style="endArrow=none;html=1;rounded=0;fillColor=#d5e8d4;strokeColor=#82b366;" parent="1" edge="1">
          <mxGeometry width="50" height="50" relative="1" as="geometry">
            <mxPoint x="157.43" y="720" as="sourcePoint" />
            <mxPoint x="157.43" y="700" as="targetPoint" />
          </mxGeometry>
        </mxCell>
        <mxCell id="LN3oMMvDZQhAUmZCS1oj-85" value="" style="endArrow=none;html=1;rounded=0;fillColor=#d5e8d4;strokeColor=#82b366;" parent="1" edge="1">
          <mxGeometry width="50" height="50" relative="1" as="geometry">
            <mxPoint x="167.5" y="720" as="sourcePoint" />
            <mxPoint x="167.5" y="700" as="targetPoint" />
          </mxGeometry>
        </mxCell>
        <mxCell id="LN3oMMvDZQhAUmZCS1oj-86" value="" style="endArrow=none;html=1;rounded=0;fillColor=#e1d5e7;strokeColor=#9673a6;" parent="1" edge="1">
          <mxGeometry width="50" height="50" relative="1" as="geometry">
            <mxPoint x="187.5" y="720" as="sourcePoint" />
            <mxPoint x="207.5" y="720" as="targetPoint" />
          </mxGeometry>
        </mxCell>
        <mxCell id="LN3oMMvDZQhAUmZCS1oj-87" value="" style="endArrow=none;html=1;rounded=0;fillColor=#e1d5e7;strokeColor=#9673a6;" parent="1" edge="1">
          <mxGeometry width="50" height="50" relative="1" as="geometry">
            <mxPoint x="207.5" y="720" as="sourcePoint" />
            <mxPoint x="207.5" y="700" as="targetPoint" />
          </mxGeometry>
        </mxCell>
        <mxCell id="LN3oMMvDZQhAUmZCS1oj-88" value="" style="endArrow=none;html=1;rounded=0;fillColor=#e1d5e7;strokeColor=#9673a6;" parent="1" edge="1">
          <mxGeometry width="50" height="50" relative="1" as="geometry">
            <mxPoint x="207.5" y="700" as="sourcePoint" />
            <mxPoint x="217.5" y="700" as="targetPoint" />
          </mxGeometry>
        </mxCell>
        <mxCell id="LN3oMMvDZQhAUmZCS1oj-89" value="" style="endArrow=none;html=1;rounded=0;fillColor=#e1d5e7;strokeColor=#9673a6;" parent="1" edge="1">
          <mxGeometry width="50" height="50" relative="1" as="geometry">
            <mxPoint x="217.63" y="720" as="sourcePoint" />
            <mxPoint x="227.5" y="720" as="targetPoint" />
          </mxGeometry>
        </mxCell>
        <mxCell id="LN3oMMvDZQhAUmZCS1oj-90" value="" style="endArrow=none;html=1;rounded=0;fillColor=#e1d5e7;strokeColor=#9673a6;" parent="1" edge="1">
          <mxGeometry width="50" height="50" relative="1" as="geometry">
            <mxPoint x="237.57" y="720" as="sourcePoint" />
            <mxPoint x="257.57" y="720" as="targetPoint" />
          </mxGeometry>
        </mxCell>
        <mxCell id="LN3oMMvDZQhAUmZCS1oj-91" value="" style="endArrow=none;html=1;rounded=0;fillColor=#e1d5e7;strokeColor=#9673a6;" parent="1" edge="1">
          <mxGeometry width="50" height="50" relative="1" as="geometry">
            <mxPoint x="227.57" y="700" as="sourcePoint" />
            <mxPoint x="237.57" y="700" as="targetPoint" />
          </mxGeometry>
        </mxCell>
        <mxCell id="LN3oMMvDZQhAUmZCS1oj-92" value="" style="endArrow=none;html=1;rounded=0;fillColor=#e1d5e7;strokeColor=#9673a6;" parent="1" edge="1">
          <mxGeometry width="50" height="50" relative="1" as="geometry">
            <mxPoint x="217.5" y="720" as="sourcePoint" />
            <mxPoint x="217.5" y="700" as="targetPoint" />
          </mxGeometry>
        </mxCell>
        <mxCell id="LN3oMMvDZQhAUmZCS1oj-93" value="" style="endArrow=none;html=1;rounded=0;fillColor=#e1d5e7;strokeColor=#9673a6;" parent="1" edge="1">
          <mxGeometry width="50" height="50" relative="1" as="geometry">
            <mxPoint x="227.5" y="720" as="sourcePoint" />
            <mxPoint x="227.5" y="700" as="targetPoint" />
          </mxGeometry>
        </mxCell>
        <mxCell id="LN3oMMvDZQhAUmZCS1oj-94" value="" style="endArrow=none;html=1;rounded=0;fillColor=#e1d5e7;strokeColor=#9673a6;" parent="1" edge="1">
          <mxGeometry width="50" height="50" relative="1" as="geometry">
            <mxPoint x="237.57" y="720" as="sourcePoint" />
            <mxPoint x="237.57" y="700" as="targetPoint" />
          </mxGeometry>
        </mxCell>
        <mxCell id="LN3oMMvDZQhAUmZCS1oj-99" value="" style="endArrow=none;html=1;rounded=0;fillColor=#e1d5e7;strokeColor=#9673a6;" parent="1" edge="1">
          <mxGeometry width="50" height="50" relative="1" as="geometry">
            <mxPoint x="267.5" y="720" as="sourcePoint" />
            <mxPoint x="287.5" y="720" as="targetPoint" />
          </mxGeometry>
        </mxCell>
        <mxCell id="LN3oMMvDZQhAUmZCS1oj-100" value="" style="endArrow=none;html=1;rounded=0;fillColor=#e1d5e7;strokeColor=#9673a6;" parent="1" edge="1">
          <mxGeometry width="50" height="50" relative="1" as="geometry">
            <mxPoint x="257.5" y="700" as="sourcePoint" />
            <mxPoint x="267.5" y="700" as="targetPoint" />
          </mxGeometry>
        </mxCell>
        <mxCell id="LN3oMMvDZQhAUmZCS1oj-101" value="" style="endArrow=none;html=1;rounded=0;fillColor=#e1d5e7;strokeColor=#9673a6;" parent="1" edge="1">
          <mxGeometry width="50" height="50" relative="1" as="geometry">
            <mxPoint x="257.43" y="720" as="sourcePoint" />
            <mxPoint x="257.43" y="700" as="targetPoint" />
          </mxGeometry>
        </mxCell>
        <mxCell id="LN3oMMvDZQhAUmZCS1oj-102" value="" style="endArrow=none;html=1;rounded=0;fillColor=#e1d5e7;strokeColor=#9673a6;" parent="1" edge="1">
          <mxGeometry width="50" height="50" relative="1" as="geometry">
            <mxPoint x="267.5" y="720" as="sourcePoint" />
            <mxPoint x="267.5" y="700" as="targetPoint" />
          </mxGeometry>
        </mxCell>
        <mxCell id="LN3oMMvDZQhAUmZCS1oj-108" value="Lin0 send header" style="rounded=1;whiteSpace=wrap;html=1;fillColor=#d5e8d4;strokeColor=#82b366;" parent="1" vertex="1">
          <mxGeometry x="77.5" y="740" width="110" height="20" as="geometry" />
        </mxCell>
        <mxCell id="LN3oMMvDZQhAUmZCS1oj-109" value="Lin1 send data" style="rounded=1;whiteSpace=wrap;html=1;fillColor=#e1d5e7;strokeColor=#9673a6;" parent="1" vertex="1">
          <mxGeometry x="187.5" y="771" width="202.5" height="20" as="geometry" />
        </mxCell>
        <mxCell id="LN3oMMvDZQhAUmZCS1oj-110" value="Lin2 listen" style="rounded=1;whiteSpace=wrap;html=1;fillColor=#dae8fc;strokeColor=#6c8ebf;dashed=1;" parent="1" vertex="1">
          <mxGeometry x="187.5" y="801" width="202.5" height="20" as="geometry" />
        </mxCell>
        <mxCell id="LN3oMMvDZQhAUmZCS1oj-111" value="Lin数据方向" style="ellipse;whiteSpace=wrap;html=1;align=center;newEdgeStyle={&quot;edgeStyle&quot;:&quot;entityRelationEdgeStyle&quot;,&quot;startArrow&quot;:&quot;none&quot;,&quot;endArrow&quot;:&quot;none&quot;,&quot;segment&quot;:10,&quot;curved&quot;:1,&quot;sourcePerimeterSpacing&quot;:0,&quot;targetPerimeterSpacing&quot;:0};treeFolding=1;treeMoving=1;" parent="1" vertex="1">
          <mxGeometry x="130" y="980" width="100" height="40" as="geometry" />
        </mxCell>
        <mxCell id="LN3oMMvDZQhAUmZCS1oj-119" style="edgeStyle=entityRelationEdgeStyle;rounded=0;orthogonalLoop=1;jettySize=auto;html=1;startArrow=none;endArrow=none;segment=10;curved=1;sourcePerimeterSpacing=0;targetPerimeterSpacing=0;entryX=0;entryY=0.5;entryDx=0;entryDy=0;" parent="1" source="LN3oMMvDZQhAUmZCS1oj-112" target="LN3oMMvDZQhAUmZCS1oj-118" edge="1">
          <mxGeometry relative="1" as="geometry" />
        </mxCell>
        <mxCell id="LN3oMMvDZQhAUmZCS1oj-112" value="Dut 作为mater" style="whiteSpace=wrap;html=1;rounded=1;arcSize=50;align=center;verticalAlign=middle;strokeWidth=1;autosize=1;spacing=4;treeFolding=1;treeMoving=1;newEdgeStyle={&quot;edgeStyle&quot;:&quot;entityRelationEdgeStyle&quot;,&quot;startArrow&quot;:&quot;none&quot;,&quot;endArrow&quot;:&quot;none&quot;,&quot;segment&quot;:10,&quot;curved&quot;:1,&quot;sourcePerimeterSpacing&quot;:0,&quot;targetPerimeterSpacing&quot;:0};" parent="1" vertex="1">
          <mxGeometry x="270" y="950" width="120" height="30" as="geometry" />
        </mxCell>
        <mxCell id="LN3oMMvDZQhAUmZCS1oj-113" value="" style="edgeStyle=entityRelationEdgeStyle;startArrow=none;endArrow=none;segment=10;curved=1;sourcePerimeterSpacing=0;targetPerimeterSpacing=0;rounded=0;" parent="1" target="LN3oMMvDZQhAUmZCS1oj-112" edge="1">
          <mxGeometry relative="1" as="geometry">
            <mxPoint x="230" y="1000" as="sourcePoint" />
          </mxGeometry>
        </mxCell>
        <mxCell id="LN3oMMvDZQhAUmZCS1oj-114" value="Dut 作为Slave" style="whiteSpace=wrap;html=1;rounded=1;arcSize=50;align=center;verticalAlign=middle;strokeWidth=1;autosize=1;spacing=4;treeFolding=1;treeMoving=1;newEdgeStyle={&quot;edgeStyle&quot;:&quot;entityRelationEdgeStyle&quot;,&quot;startArrow&quot;:&quot;none&quot;,&quot;endArrow&quot;:&quot;none&quot;,&quot;segment&quot;:10,&quot;curved&quot;:1,&quot;sourcePerimeterSpacing&quot;:0,&quot;targetPerimeterSpacing&quot;:0};" parent="1" vertex="1">
          <mxGeometry x="270" y="1040" width="120" height="30" as="geometry" />
        </mxCell>
        <mxCell id="LN3oMMvDZQhAUmZCS1oj-115" value="" style="edgeStyle=entityRelationEdgeStyle;startArrow=none;endArrow=none;segment=10;curved=1;sourcePerimeterSpacing=0;targetPerimeterSpacing=0;rounded=0;" parent="1" target="LN3oMMvDZQhAUmZCS1oj-114" edge="1">
          <mxGeometry relative="1" as="geometry">
            <mxPoint x="230" y="1000" as="sourcePoint" />
          </mxGeometry>
        </mxCell>
        <mxCell id="LN3oMMvDZQhAUmZCS1oj-116" value="TX: Send data" style="whiteSpace=wrap;html=1;rounded=1;arcSize=50;align=center;verticalAlign=middle;strokeWidth=1;autosize=1;spacing=4;treeFolding=1;treeMoving=1;newEdgeStyle={&quot;edgeStyle&quot;:&quot;entityRelationEdgeStyle&quot;,&quot;startArrow&quot;:&quot;none&quot;,&quot;endArrow&quot;:&quot;none&quot;,&quot;segment&quot;:10,&quot;curved&quot;:1,&quot;sourcePerimeterSpacing&quot;:0,&quot;targetPerimeterSpacing&quot;:0};" parent="1" vertex="1">
          <mxGeometry x="420" y="920" width="120" height="30" as="geometry" />
        </mxCell>
        <mxCell id="LN3oMMvDZQhAUmZCS1oj-117" value="" style="edgeStyle=entityRelationEdgeStyle;startArrow=none;endArrow=none;segment=10;curved=1;sourcePerimeterSpacing=0;targetPerimeterSpacing=0;rounded=0;exitX=1;exitY=0.5;exitDx=0;exitDy=0;" parent="1" source="LN3oMMvDZQhAUmZCS1oj-112" target="LN3oMMvDZQhAUmZCS1oj-116" edge="1">
          <mxGeometry relative="1" as="geometry">
            <mxPoint x="389" y="962" as="sourcePoint" />
          </mxGeometry>
        </mxCell>
        <mxCell id="LN3oMMvDZQhAUmZCS1oj-118" value="RX: Only listen" style="whiteSpace=wrap;html=1;rounded=1;arcSize=50;align=center;verticalAlign=middle;strokeWidth=1;autosize=1;spacing=4;treeFolding=1;treeMoving=1;newEdgeStyle={&quot;edgeStyle&quot;:&quot;entityRelationEdgeStyle&quot;,&quot;startArrow&quot;:&quot;none&quot;,&quot;endArrow&quot;:&quot;none&quot;,&quot;segment&quot;:10,&quot;curved&quot;:1,&quot;sourcePerimeterSpacing&quot;:0,&quot;targetPerimeterSpacing&quot;:0};" parent="1" vertex="1">
          <mxGeometry x="420" y="970" width="120" height="30" as="geometry" />
        </mxCell>
        <mxCell id="LN3oMMvDZQhAUmZCS1oj-120" style="edgeStyle=entityRelationEdgeStyle;rounded=0;orthogonalLoop=1;jettySize=auto;html=1;startArrow=none;endArrow=none;segment=10;curved=1;sourcePerimeterSpacing=0;targetPerimeterSpacing=0;entryX=0;entryY=0.5;entryDx=0;entryDy=0;exitX=1;exitY=0.5;exitDx=0;exitDy=0;" parent="1" source="LN3oMMvDZQhAUmZCS1oj-114" target="LN3oMMvDZQhAUmZCS1oj-123" edge="1">
          <mxGeometry relative="1" as="geometry">
            <mxPoint x="390" y="1057" as="sourcePoint" />
          </mxGeometry>
        </mxCell>
        <mxCell id="LN3oMMvDZQhAUmZCS1oj-121" value="TX: Send data" style="whiteSpace=wrap;html=1;rounded=1;arcSize=50;align=center;verticalAlign=middle;strokeWidth=1;autosize=1;spacing=4;treeFolding=1;treeMoving=1;newEdgeStyle={&quot;edgeStyle&quot;:&quot;entityRelationEdgeStyle&quot;,&quot;startArrow&quot;:&quot;none&quot;,&quot;endArrow&quot;:&quot;none&quot;,&quot;segment&quot;:10,&quot;curved&quot;:1,&quot;sourcePerimeterSpacing&quot;:0,&quot;targetPerimeterSpacing&quot;:0};" parent="1" vertex="1">
          <mxGeometry x="420" y="1012" width="120" height="30" as="geometry" />
        </mxCell>
        <mxCell id="LN3oMMvDZQhAUmZCS1oj-122" value="" style="edgeStyle=entityRelationEdgeStyle;startArrow=none;endArrow=none;segment=10;curved=1;sourcePerimeterSpacing=0;targetPerimeterSpacing=0;rounded=0;exitX=1;exitY=0.5;exitDx=0;exitDy=0;" parent="1" source="LN3oMMvDZQhAUmZCS1oj-114" target="LN3oMMvDZQhAUmZCS1oj-121" edge="1">
          <mxGeometry relative="1" as="geometry">
            <mxPoint x="390" y="1057" as="sourcePoint" />
          </mxGeometry>
        </mxCell>
        <mxCell id="LN3oMMvDZQhAUmZCS1oj-123" value="RX: Only listen" style="whiteSpace=wrap;html=1;rounded=1;arcSize=50;align=center;verticalAlign=middle;strokeWidth=1;autosize=1;spacing=4;treeFolding=1;treeMoving=1;newEdgeStyle={&quot;edgeStyle&quot;:&quot;entityRelationEdgeStyle&quot;,&quot;startArrow&quot;:&quot;none&quot;,&quot;endArrow&quot;:&quot;none&quot;,&quot;segment&quot;:10,&quot;curved&quot;:1,&quot;sourcePerimeterSpacing&quot;:0,&quot;targetPerimeterSpacing&quot;:0};" parent="1" vertex="1">
          <mxGeometry x="420" y="1062" width="120" height="30" as="geometry" />
        </mxCell>
        <mxCell id="_QyYO3VfeQBTmB0DwKH0-1" value="&lt;div&gt;Lin_vip0&lt;/div&gt;" style="rounded=0;whiteSpace=wrap;html=1;" vertex="1" parent="1">
          <mxGeometry x="575" y="95" width="60" height="100" as="geometry" />
        </mxCell>
        <mxCell id="_QyYO3VfeQBTmB0DwKH0-2" value="&lt;div&gt;Lin_vip0&lt;/div&gt;" style="rounded=0;whiteSpace=wrap;html=1;" vertex="1" parent="1">
          <mxGeometry x="575" y="220" width="60" height="100" as="geometry" />
        </mxCell>
        <mxCell id="_QyYO3VfeQBTmB0DwKH0-3" value="" style="endArrow=classic;html=1;rounded=0;exitX=1.009;exitY=0.193;exitDx=0;exitDy=0;exitPerimeter=0;entryX=-0.004;entryY=0.347;entryDx=0;entryDy=0;entryPerimeter=0;endFill=1;" edge="1" parent="1" source="LN3oMMvDZQhAUmZCS1oj-31" target="_QyYO3VfeQBTmB0DwKH0-1">
          <mxGeometry width="50" height="50" relative="1" as="geometry">
            <mxPoint x="570" y="210" as="sourcePoint" />
            <mxPoint x="570" y="130" as="targetPoint" />
          </mxGeometry>
        </mxCell>
        <mxCell id="_QyYO3VfeQBTmB0DwKH0-7" value="RX" style="edgeLabel;html=1;align=center;verticalAlign=middle;resizable=0;points=[];" vertex="1" connectable="0" parent="_QyYO3VfeQBTmB0DwKH0-3">
          <mxGeometry x="-0.0162" relative="1" as="geometry">
            <mxPoint x="-2" as="offset" />
          </mxGeometry>
        </mxCell>
        <mxCell id="_QyYO3VfeQBTmB0DwKH0-4" value="" style="endArrow=classic;html=1;rounded=0;exitX=-0.001;exitY=0.65;exitDx=0;exitDy=0;exitPerimeter=0;endFill=1;" edge="1" parent="1" source="_QyYO3VfeQBTmB0DwKH0-1">
          <mxGeometry width="50" height="50" relative="1" as="geometry">
            <mxPoint x="550" y="180" as="sourcePoint" />
            <mxPoint x="530" y="160" as="targetPoint" />
          </mxGeometry>
        </mxCell>
        <mxCell id="_QyYO3VfeQBTmB0DwKH0-8" value="TX" style="edgeLabel;html=1;align=center;verticalAlign=middle;resizable=0;points=[];" vertex="1" connectable="0" parent="_QyYO3VfeQBTmB0DwKH0-4">
          <mxGeometry x="-0.049" y="-1" relative="1" as="geometry">
            <mxPoint x="-2" as="offset" />
          </mxGeometry>
        </mxCell>
        <mxCell id="_QyYO3VfeQBTmB0DwKH0-5" value="" style="endArrow=classic;html=1;rounded=0;exitX=1.009;exitY=0.193;exitDx=0;exitDy=0;exitPerimeter=0;entryX=-0.004;entryY=0.347;entryDx=0;entryDy=0;entryPerimeter=0;endFill=1;" edge="1" parent="1">
          <mxGeometry width="50" height="50" relative="1" as="geometry">
            <mxPoint x="531" y="249.86" as="sourcePoint" />
            <mxPoint x="575" y="249.86" as="targetPoint" />
          </mxGeometry>
        </mxCell>
        <mxCell id="_QyYO3VfeQBTmB0DwKH0-9" value="RX" style="edgeLabel;html=1;align=center;verticalAlign=middle;resizable=0;points=[];" vertex="1" connectable="0" parent="_QyYO3VfeQBTmB0DwKH0-5">
          <mxGeometry y="-1" relative="1" as="geometry">
            <mxPoint x="-2" as="offset" />
          </mxGeometry>
        </mxCell>
        <mxCell id="_QyYO3VfeQBTmB0DwKH0-6" value="" style="endArrow=classic;html=1;rounded=0;exitX=-0.001;exitY=0.65;exitDx=0;exitDy=0;exitPerimeter=0;endFill=1;" edge="1" parent="1">
          <mxGeometry width="50" height="50" relative="1" as="geometry">
            <mxPoint x="575" y="279.86" as="sourcePoint" />
            <mxPoint x="530" y="279.86" as="targetPoint" />
          </mxGeometry>
        </mxCell>
        <mxCell id="_QyYO3VfeQBTmB0DwKH0-10" value="TX" style="edgeLabel;html=1;align=center;verticalAlign=middle;resizable=0;points=[];" vertex="1" connectable="0" parent="_QyYO3VfeQBTmB0DwKH0-6">
          <mxGeometry x="-0.0062" y="1" relative="1" as="geometry">
            <mxPoint as="offset" />
          </mxGeometry>
        </mxCell>
        <mxCell id="_QyYO3VfeQBTmB0DwKH0-11" value="" style="endArrow=none;html=1;rounded=0;fillColor=#e1d5e7;strokeColor=#9673a6;" edge="1" parent="1">
          <mxGeometry width="50" height="50" relative="1" as="geometry">
            <mxPoint x="287.5" y="720" as="sourcePoint" />
            <mxPoint x="307.5" y="720" as="targetPoint" />
          </mxGeometry>
        </mxCell>
        <mxCell id="_QyYO3VfeQBTmB0DwKH0-12" value="" style="endArrow=none;html=1;rounded=0;fillColor=#e1d5e7;strokeColor=#9673a6;" edge="1" parent="1">
          <mxGeometry width="50" height="50" relative="1" as="geometry">
            <mxPoint x="307.5" y="720" as="sourcePoint" />
            <mxPoint x="307.5" y="700" as="targetPoint" />
          </mxGeometry>
        </mxCell>
        <mxCell id="_QyYO3VfeQBTmB0DwKH0-13" value="" style="endArrow=none;html=1;rounded=0;fillColor=#e1d5e7;strokeColor=#9673a6;" edge="1" parent="1">
          <mxGeometry width="50" height="50" relative="1" as="geometry">
            <mxPoint x="307.5" y="700" as="sourcePoint" />
            <mxPoint x="317.5" y="700" as="targetPoint" />
          </mxGeometry>
        </mxCell>
        <mxCell id="_QyYO3VfeQBTmB0DwKH0-14" value="" style="endArrow=none;html=1;rounded=0;fillColor=#e1d5e7;strokeColor=#9673a6;" edge="1" parent="1">
          <mxGeometry width="50" height="50" relative="1" as="geometry">
            <mxPoint x="317.63" y="720" as="sourcePoint" />
            <mxPoint x="327.5" y="720" as="targetPoint" />
          </mxGeometry>
        </mxCell>
        <mxCell id="_QyYO3VfeQBTmB0DwKH0-15" value="" style="endArrow=none;html=1;rounded=0;fillColor=#e1d5e7;strokeColor=#9673a6;" edge="1" parent="1">
          <mxGeometry width="50" height="50" relative="1" as="geometry">
            <mxPoint x="337.57" y="720" as="sourcePoint" />
            <mxPoint x="357.57" y="720" as="targetPoint" />
          </mxGeometry>
        </mxCell>
        <mxCell id="_QyYO3VfeQBTmB0DwKH0-16" value="" style="endArrow=none;html=1;rounded=0;fillColor=#e1d5e7;strokeColor=#9673a6;" edge="1" parent="1">
          <mxGeometry width="50" height="50" relative="1" as="geometry">
            <mxPoint x="327.57" y="700" as="sourcePoint" />
            <mxPoint x="337.57" y="700" as="targetPoint" />
          </mxGeometry>
        </mxCell>
        <mxCell id="_QyYO3VfeQBTmB0DwKH0-17" value="" style="endArrow=none;html=1;rounded=0;fillColor=#e1d5e7;strokeColor=#9673a6;" edge="1" parent="1">
          <mxGeometry width="50" height="50" relative="1" as="geometry">
            <mxPoint x="317.5" y="720" as="sourcePoint" />
            <mxPoint x="317.5" y="700" as="targetPoint" />
          </mxGeometry>
        </mxCell>
        <mxCell id="_QyYO3VfeQBTmB0DwKH0-18" value="" style="endArrow=none;html=1;rounded=0;fillColor=#e1d5e7;strokeColor=#9673a6;" edge="1" parent="1">
          <mxGeometry width="50" height="50" relative="1" as="geometry">
            <mxPoint x="327.5" y="720" as="sourcePoint" />
            <mxPoint x="327.5" y="700" as="targetPoint" />
          </mxGeometry>
        </mxCell>
        <mxCell id="_QyYO3VfeQBTmB0DwKH0-19" value="" style="endArrow=none;html=1;rounded=0;fillColor=#e1d5e7;strokeColor=#9673a6;" edge="1" parent="1">
          <mxGeometry width="50" height="50" relative="1" as="geometry">
            <mxPoint x="337.57" y="720" as="sourcePoint" />
            <mxPoint x="337.57" y="700" as="targetPoint" />
          </mxGeometry>
        </mxCell>
        <mxCell id="_QyYO3VfeQBTmB0DwKH0-20" value="" style="endArrow=none;html=1;rounded=0;fillColor=#e1d5e7;strokeColor=#9673a6;" edge="1" parent="1">
          <mxGeometry width="50" height="50" relative="1" as="geometry">
            <mxPoint x="367.5" y="720" as="sourcePoint" />
            <mxPoint x="387.5" y="720" as="targetPoint" />
          </mxGeometry>
        </mxCell>
        <mxCell id="_QyYO3VfeQBTmB0DwKH0-21" value="" style="endArrow=none;html=1;rounded=0;fillColor=#e1d5e7;strokeColor=#9673a6;" edge="1" parent="1">
          <mxGeometry width="50" height="50" relative="1" as="geometry">
            <mxPoint x="357.5" y="700" as="sourcePoint" />
            <mxPoint x="367.5" y="700" as="targetPoint" />
          </mxGeometry>
        </mxCell>
        <mxCell id="_QyYO3VfeQBTmB0DwKH0-22" value="" style="endArrow=none;html=1;rounded=0;fillColor=#e1d5e7;strokeColor=#9673a6;" edge="1" parent="1">
          <mxGeometry width="50" height="50" relative="1" as="geometry">
            <mxPoint x="357.43" y="720" as="sourcePoint" />
            <mxPoint x="357.43" y="700" as="targetPoint" />
          </mxGeometry>
        </mxCell>
        <mxCell id="_QyYO3VfeQBTmB0DwKH0-23" value="" style="endArrow=none;html=1;rounded=0;fillColor=#e1d5e7;strokeColor=#9673a6;" edge="1" parent="1">
          <mxGeometry width="50" height="50" relative="1" as="geometry">
            <mxPoint x="367.5" y="720" as="sourcePoint" />
            <mxPoint x="367.5" y="700" as="targetPoint" />
          </mxGeometry>
        </mxCell>
        <mxCell id="_QyYO3VfeQBTmB0DwKH0-24" value="" style="endArrow=none;html=1;rounded=0;fillColor=#d5e8d4;strokeColor=#82b366;" edge="1" parent="1">
          <mxGeometry width="50" height="50" relative="1" as="geometry">
            <mxPoint x="387" y="720" as="sourcePoint" />
            <mxPoint x="427" y="720" as="targetPoint" />
          </mxGeometry>
        </mxCell>
        <mxCell id="_QyYO3VfeQBTmB0DwKH0-25" value="" style="endArrow=none;html=1;rounded=0;fillColor=#d5e8d4;strokeColor=#82b366;" edge="1" parent="1">
          <mxGeometry width="50" height="50" relative="1" as="geometry">
            <mxPoint x="427" y="720" as="sourcePoint" />
            <mxPoint x="427" y="700" as="targetPoint" />
          </mxGeometry>
        </mxCell>
        <mxCell id="_QyYO3VfeQBTmB0DwKH0-26" value="" style="endArrow=none;html=1;rounded=0;fillColor=#d5e8d4;strokeColor=#82b366;" edge="1" parent="1">
          <mxGeometry width="50" height="50" relative="1" as="geometry">
            <mxPoint x="427" y="700" as="sourcePoint" />
            <mxPoint x="447" y="700" as="targetPoint" />
          </mxGeometry>
        </mxCell>
        <mxCell id="_QyYO3VfeQBTmB0DwKH0-27" value="" style="endArrow=none;html=1;rounded=0;fillColor=#d5e8d4;strokeColor=#82b366;" edge="1" parent="1">
          <mxGeometry width="50" height="50" relative="1" as="geometry">
            <mxPoint x="447" y="720" as="sourcePoint" />
            <mxPoint x="467" y="720" as="targetPoint" />
          </mxGeometry>
        </mxCell>
        <mxCell id="_QyYO3VfeQBTmB0DwKH0-28" value="" style="endArrow=none;html=1;rounded=0;fillColor=#d5e8d4;strokeColor=#82b366;" edge="1" parent="1">
          <mxGeometry width="50" height="50" relative="1" as="geometry">
            <mxPoint x="477" y="720" as="sourcePoint" />
            <mxPoint x="497" y="720" as="targetPoint" />
          </mxGeometry>
        </mxCell>
        <mxCell id="_QyYO3VfeQBTmB0DwKH0-29" value="" style="endArrow=none;html=1;rounded=0;fillColor=#d5e8d4;strokeColor=#82b366;" edge="1" parent="1">
          <mxGeometry width="50" height="50" relative="1" as="geometry">
            <mxPoint x="467" y="700" as="sourcePoint" />
            <mxPoint x="477" y="700" as="targetPoint" />
          </mxGeometry>
        </mxCell>
        <mxCell id="_QyYO3VfeQBTmB0DwKH0-30" value="" style="endArrow=none;html=1;rounded=0;fillColor=#d5e8d4;strokeColor=#82b366;" edge="1" parent="1">
          <mxGeometry width="50" height="50" relative="1" as="geometry">
            <mxPoint x="446.87" y="720" as="sourcePoint" />
            <mxPoint x="446.87" y="700" as="targetPoint" />
          </mxGeometry>
        </mxCell>
        <mxCell id="_QyYO3VfeQBTmB0DwKH0-31" value="" style="endArrow=none;html=1;rounded=0;fillColor=#d5e8d4;strokeColor=#82b366;" edge="1" parent="1">
          <mxGeometry width="50" height="50" relative="1" as="geometry">
            <mxPoint x="466.93" y="720" as="sourcePoint" />
            <mxPoint x="466.93" y="700" as="targetPoint" />
          </mxGeometry>
        </mxCell>
        <mxCell id="_QyYO3VfeQBTmB0DwKH0-32" value="" style="endArrow=none;html=1;rounded=0;fillColor=#d5e8d4;strokeColor=#82b366;" edge="1" parent="1">
          <mxGeometry width="50" height="50" relative="1" as="geometry">
            <mxPoint x="477" y="720" as="sourcePoint" />
            <mxPoint x="477" y="700" as="targetPoint" />
          </mxGeometry>
        </mxCell>
        <mxCell id="_QyYO3VfeQBTmB0DwKH0-33" value="" style="endArrow=none;html=1;rounded=0;fillColor=#dae8fc;strokeColor=#6c8ebf;" edge="1" parent="1">
          <mxGeometry width="50" height="50" relative="1" as="geometry">
            <mxPoint x="497" y="720" as="sourcePoint" />
            <mxPoint x="517" y="720" as="targetPoint" />
          </mxGeometry>
        </mxCell>
        <mxCell id="_QyYO3VfeQBTmB0DwKH0-34" value="" style="endArrow=none;html=1;rounded=0;fillColor=#dae8fc;strokeColor=#6c8ebf;" edge="1" parent="1">
          <mxGeometry width="50" height="50" relative="1" as="geometry">
            <mxPoint x="517" y="720" as="sourcePoint" />
            <mxPoint x="517" y="700" as="targetPoint" />
          </mxGeometry>
        </mxCell>
        <mxCell id="_QyYO3VfeQBTmB0DwKH0-35" value="" style="endArrow=none;html=1;rounded=0;fillColor=#dae8fc;strokeColor=#6c8ebf;" edge="1" parent="1">
          <mxGeometry width="50" height="50" relative="1" as="geometry">
            <mxPoint x="517" y="700" as="sourcePoint" />
            <mxPoint x="527" y="700" as="targetPoint" />
          </mxGeometry>
        </mxCell>
        <mxCell id="_QyYO3VfeQBTmB0DwKH0-36" value="" style="endArrow=none;html=1;rounded=0;fillColor=#dae8fc;strokeColor=#6c8ebf;" edge="1" parent="1">
          <mxGeometry width="50" height="50" relative="1" as="geometry">
            <mxPoint x="527.13" y="720" as="sourcePoint" />
            <mxPoint x="537" y="720" as="targetPoint" />
          </mxGeometry>
        </mxCell>
        <mxCell id="_QyYO3VfeQBTmB0DwKH0-37" value="" style="endArrow=none;html=1;rounded=0;fillColor=#dae8fc;strokeColor=#6c8ebf;" edge="1" parent="1">
          <mxGeometry width="50" height="50" relative="1" as="geometry">
            <mxPoint x="547.0699999999999" y="720" as="sourcePoint" />
            <mxPoint x="567.0699999999999" y="720" as="targetPoint" />
          </mxGeometry>
        </mxCell>
        <mxCell id="_QyYO3VfeQBTmB0DwKH0-38" value="" style="endArrow=none;html=1;rounded=0;fillColor=#dae8fc;strokeColor=#6c8ebf;" edge="1" parent="1">
          <mxGeometry width="50" height="50" relative="1" as="geometry">
            <mxPoint x="537.0699999999999" y="700" as="sourcePoint" />
            <mxPoint x="547.0699999999999" y="700" as="targetPoint" />
          </mxGeometry>
        </mxCell>
        <mxCell id="_QyYO3VfeQBTmB0DwKH0-39" value="" style="endArrow=none;html=1;rounded=0;fillColor=#dae8fc;strokeColor=#6c8ebf;" edge="1" parent="1">
          <mxGeometry width="50" height="50" relative="1" as="geometry">
            <mxPoint x="527" y="720" as="sourcePoint" />
            <mxPoint x="527" y="700" as="targetPoint" />
          </mxGeometry>
        </mxCell>
        <mxCell id="_QyYO3VfeQBTmB0DwKH0-40" value="" style="endArrow=none;html=1;rounded=0;fillColor=#dae8fc;strokeColor=#6c8ebf;" edge="1" parent="1">
          <mxGeometry width="50" height="50" relative="1" as="geometry">
            <mxPoint x="537" y="720" as="sourcePoint" />
            <mxPoint x="537" y="700" as="targetPoint" />
          </mxGeometry>
        </mxCell>
        <mxCell id="_QyYO3VfeQBTmB0DwKH0-41" value="" style="endArrow=none;html=1;rounded=0;fillColor=#dae8fc;strokeColor=#6c8ebf;" edge="1" parent="1">
          <mxGeometry width="50" height="50" relative="1" as="geometry">
            <mxPoint x="547.0699999999999" y="720" as="sourcePoint" />
            <mxPoint x="547.0699999999999" y="700" as="targetPoint" />
          </mxGeometry>
        </mxCell>
        <mxCell id="_QyYO3VfeQBTmB0DwKH0-42" value="" style="endArrow=none;html=1;rounded=0;fillColor=#dae8fc;strokeColor=#6c8ebf;" edge="1" parent="1">
          <mxGeometry width="50" height="50" relative="1" as="geometry">
            <mxPoint x="577" y="720" as="sourcePoint" />
            <mxPoint x="597" y="720" as="targetPoint" />
          </mxGeometry>
        </mxCell>
        <mxCell id="_QyYO3VfeQBTmB0DwKH0-43" value="" style="endArrow=none;html=1;rounded=0;fillColor=#dae8fc;strokeColor=#6c8ebf;" edge="1" parent="1">
          <mxGeometry width="50" height="50" relative="1" as="geometry">
            <mxPoint x="567" y="700" as="sourcePoint" />
            <mxPoint x="577" y="700" as="targetPoint" />
          </mxGeometry>
        </mxCell>
        <mxCell id="_QyYO3VfeQBTmB0DwKH0-44" value="" style="endArrow=none;html=1;rounded=0;fillColor=#dae8fc;strokeColor=#6c8ebf;" edge="1" parent="1">
          <mxGeometry width="50" height="50" relative="1" as="geometry">
            <mxPoint x="566.9300000000001" y="720" as="sourcePoint" />
            <mxPoint x="566.9300000000001" y="700" as="targetPoint" />
          </mxGeometry>
        </mxCell>
        <mxCell id="_QyYO3VfeQBTmB0DwKH0-45" value="" style="endArrow=none;html=1;rounded=0;fillColor=#dae8fc;strokeColor=#6c8ebf;" edge="1" parent="1">
          <mxGeometry width="50" height="50" relative="1" as="geometry">
            <mxPoint x="577" y="720" as="sourcePoint" />
            <mxPoint x="577" y="700" as="targetPoint" />
          </mxGeometry>
        </mxCell>
        <mxCell id="_QyYO3VfeQBTmB0DwKH0-46" value="" style="endArrow=none;html=1;rounded=0;fillColor=#dae8fc;strokeColor=#6c8ebf;" edge="1" parent="1">
          <mxGeometry width="50" height="50" relative="1" as="geometry">
            <mxPoint x="597" y="720" as="sourcePoint" />
            <mxPoint x="617" y="720" as="targetPoint" />
          </mxGeometry>
        </mxCell>
        <mxCell id="_QyYO3VfeQBTmB0DwKH0-47" value="" style="endArrow=none;html=1;rounded=0;fillColor=#dae8fc;strokeColor=#6c8ebf;" edge="1" parent="1">
          <mxGeometry width="50" height="50" relative="1" as="geometry">
            <mxPoint x="617" y="720" as="sourcePoint" />
            <mxPoint x="617" y="700" as="targetPoint" />
          </mxGeometry>
        </mxCell>
        <mxCell id="_QyYO3VfeQBTmB0DwKH0-48" value="" style="endArrow=none;html=1;rounded=0;fillColor=#dae8fc;strokeColor=#6c8ebf;" edge="1" parent="1">
          <mxGeometry width="50" height="50" relative="1" as="geometry">
            <mxPoint x="617" y="700" as="sourcePoint" />
            <mxPoint x="627" y="700" as="targetPoint" />
          </mxGeometry>
        </mxCell>
        <mxCell id="_QyYO3VfeQBTmB0DwKH0-49" value="" style="endArrow=none;html=1;rounded=0;fillColor=#dae8fc;strokeColor=#6c8ebf;" edge="1" parent="1">
          <mxGeometry width="50" height="50" relative="1" as="geometry">
            <mxPoint x="627.13" y="720" as="sourcePoint" />
            <mxPoint x="637" y="720" as="targetPoint" />
          </mxGeometry>
        </mxCell>
        <mxCell id="_QyYO3VfeQBTmB0DwKH0-50" value="" style="endArrow=none;html=1;rounded=0;fillColor=#dae8fc;strokeColor=#6c8ebf;" edge="1" parent="1">
          <mxGeometry width="50" height="50" relative="1" as="geometry">
            <mxPoint x="647.0699999999999" y="720" as="sourcePoint" />
            <mxPoint x="667.0699999999999" y="720" as="targetPoint" />
          </mxGeometry>
        </mxCell>
        <mxCell id="_QyYO3VfeQBTmB0DwKH0-51" value="" style="endArrow=none;html=1;rounded=0;fillColor=#dae8fc;strokeColor=#6c8ebf;" edge="1" parent="1">
          <mxGeometry width="50" height="50" relative="1" as="geometry">
            <mxPoint x="637.0699999999999" y="700" as="sourcePoint" />
            <mxPoint x="647.0699999999999" y="700" as="targetPoint" />
          </mxGeometry>
        </mxCell>
        <mxCell id="_QyYO3VfeQBTmB0DwKH0-52" value="" style="endArrow=none;html=1;rounded=0;fillColor=#dae8fc;strokeColor=#6c8ebf;" edge="1" parent="1">
          <mxGeometry width="50" height="50" relative="1" as="geometry">
            <mxPoint x="627" y="720" as="sourcePoint" />
            <mxPoint x="627" y="700" as="targetPoint" />
          </mxGeometry>
        </mxCell>
        <mxCell id="_QyYO3VfeQBTmB0DwKH0-53" value="" style="endArrow=none;html=1;rounded=0;fillColor=#dae8fc;strokeColor=#6c8ebf;" edge="1" parent="1">
          <mxGeometry width="50" height="50" relative="1" as="geometry">
            <mxPoint x="637" y="720" as="sourcePoint" />
            <mxPoint x="637" y="700" as="targetPoint" />
          </mxGeometry>
        </mxCell>
        <mxCell id="_QyYO3VfeQBTmB0DwKH0-54" value="" style="endArrow=none;html=1;rounded=0;fillColor=#dae8fc;strokeColor=#6c8ebf;" edge="1" parent="1">
          <mxGeometry width="50" height="50" relative="1" as="geometry">
            <mxPoint x="647.0699999999999" y="720" as="sourcePoint" />
            <mxPoint x="647.0699999999999" y="700" as="targetPoint" />
          </mxGeometry>
        </mxCell>
        <mxCell id="_QyYO3VfeQBTmB0DwKH0-55" value="" style="endArrow=none;html=1;rounded=0;fillColor=#dae8fc;strokeColor=#6c8ebf;" edge="1" parent="1">
          <mxGeometry width="50" height="50" relative="1" as="geometry">
            <mxPoint x="677" y="720" as="sourcePoint" />
            <mxPoint x="697" y="720" as="targetPoint" />
          </mxGeometry>
        </mxCell>
        <mxCell id="_QyYO3VfeQBTmB0DwKH0-56" value="" style="endArrow=none;html=1;rounded=0;fillColor=#dae8fc;strokeColor=#6c8ebf;" edge="1" parent="1">
          <mxGeometry width="50" height="50" relative="1" as="geometry">
            <mxPoint x="667" y="700" as="sourcePoint" />
            <mxPoint x="677" y="700" as="targetPoint" />
          </mxGeometry>
        </mxCell>
        <mxCell id="_QyYO3VfeQBTmB0DwKH0-57" value="" style="endArrow=none;html=1;rounded=0;fillColor=#dae8fc;strokeColor=#6c8ebf;" edge="1" parent="1">
          <mxGeometry width="50" height="50" relative="1" as="geometry">
            <mxPoint x="666.9300000000001" y="720" as="sourcePoint" />
            <mxPoint x="666.9300000000001" y="700" as="targetPoint" />
          </mxGeometry>
        </mxCell>
        <mxCell id="_QyYO3VfeQBTmB0DwKH0-58" value="" style="endArrow=none;html=1;rounded=0;fillColor=#dae8fc;strokeColor=#6c8ebf;" edge="1" parent="1">
          <mxGeometry width="50" height="50" relative="1" as="geometry">
            <mxPoint x="677" y="720" as="sourcePoint" />
            <mxPoint x="677" y="700" as="targetPoint" />
          </mxGeometry>
        </mxCell>
        <mxCell id="_QyYO3VfeQBTmB0DwKH0-59" value="Lin0 listen data" style="rounded=1;whiteSpace=wrap;html=1;fillColor=#d5e8d4;strokeColor=#82b366;dashed=1;" vertex="1" parent="1">
          <mxGeometry x="187.5" y="740" width="202.5" height="20" as="geometry" />
        </mxCell>
        <mxCell id="_QyYO3VfeQBTmB0DwKH0-60" value="Lin1 listen header" style="rounded=1;whiteSpace=wrap;html=1;fillColor=#e1d5e7;strokeColor=#9673a6;dashed=1;" vertex="1" parent="1">
          <mxGeometry x="389.75" y="771" width="110.25" height="20" as="geometry" />
        </mxCell>
        <mxCell id="_QyYO3VfeQBTmB0DwKH0-61" value="Lin2 listen header" style="rounded=1;whiteSpace=wrap;html=1;fillColor=#dae8fc;strokeColor=#6c8ebf;dashed=1;" vertex="1" parent="1">
          <mxGeometry x="389.75" y="801" width="110.25" height="20" as="geometry" />
        </mxCell>
        <mxCell id="_QyYO3VfeQBTmB0DwKH0-62" value="Lin1 listen header" style="rounded=1;whiteSpace=wrap;html=1;fillColor=#e1d5e7;strokeColor=#9673a6;dashed=1;" vertex="1" parent="1">
          <mxGeometry x="77.25" y="771" width="110.25" height="20" as="geometry" />
        </mxCell>
        <mxCell id="_QyYO3VfeQBTmB0DwKH0-63" value="Lin2 listen header" style="rounded=1;whiteSpace=wrap;html=1;fillColor=#dae8fc;strokeColor=#6c8ebf;dashed=1;" vertex="1" parent="1">
          <mxGeometry x="77.25" y="801" width="110.25" height="20" as="geometry" />
        </mxCell>
        <mxCell id="_QyYO3VfeQBTmB0DwKH0-64" value="Lin0 send header" style="rounded=1;whiteSpace=wrap;html=1;fillColor=#d5e8d4;strokeColor=#82b366;" vertex="1" parent="1">
          <mxGeometry x="389.75" y="740" width="110" height="20" as="geometry" />
        </mxCell>
        <mxCell id="_QyYO3VfeQBTmB0DwKH0-65" value="Lin2 send data" style="rounded=1;whiteSpace=wrap;html=1;fillColor=#dae8fc;strokeColor=#6c8ebf;" vertex="1" parent="1">
          <mxGeometry x="499.75" y="801" width="202.5" height="20" as="geometry" />
        </mxCell>
        <mxCell id="_QyYO3VfeQBTmB0DwKH0-66" value="Lin0 listen data" style="rounded=1;whiteSpace=wrap;html=1;fillColor=#d5e8d4;strokeColor=#82b366;dashed=1;" vertex="1" parent="1">
          <mxGeometry x="499.75" y="740" width="202.5" height="20" as="geometry" />
        </mxCell>
        <mxCell id="_QyYO3VfeQBTmB0DwKH0-67" value="Lin1 listen data" style="rounded=1;whiteSpace=wrap;html=1;fillColor=#e1d5e7;strokeColor=#9673a6;" vertex="1" parent="1">
          <mxGeometry x="500" y="771" width="202.5" height="20" as="geometry" />
        </mxCell>
        <mxCell id="_QyYO3VfeQBTmB0DwKH0-68" value="&lt;div&gt;a. 只有主机可以发送帧头&lt;/div&gt;&lt;div&gt;b. 帧中数据个数不固定&lt;/div&gt;&lt;div&gt;c. 帧头中的帧ID可以理解为节点编号&lt;/div&gt;" style="text;strokeColor=none;align=left;fillColor=none;html=1;verticalAlign=middle;whiteSpace=wrap;rounded=0;" vertex="1" parent="1">
          <mxGeometry x="120" y="840" width="350" height="30" as="geometry" />
        </mxCell>
      </root>
    </mxGraphModel>
  </diagram>
</mxfile>
